<?xml version="1.0" encoding="UTF-8"?>
<svg width="100%" xmlns="http://www.w3.org/2000/svg" viewBox="0,0,500,500" class="mosaic-canvas cursor" height="100%"><defs><pattern id="gridfill" patternUnits="userSpaceOnUse" width="50" height="50"><line x1="0" y1="0" x2="50" y2="0" class="grid"></line><line x1="0" y1="0" x2="0" y2="50" class="grid"></line></pattern></defs><rect fill="url(#gridfill)" x="-25000" y="-25000" width="50000" height="50000"></rect><g class="schematic-content"><g class="device wire d" style="transform: matrix(1, 0, 0, 1, 600, 200); transform-origin: 650px 250px;"><rect x="50" y="50" width="0" height="0" class="tetris"></rect></g><g class="device wire d" style="transform: matrix(1, 0, 0, 1, 200, 50); transform-origin: 250px 100px;"><rect x="50" y="50" width="0" height="0" class="tetris"></rect></g><g class="device wire d" style="transform: matrix(1, 0, 0, 1, 100, 300); transform-origin: 150px 350px;"><rect x="50" y="50" width="0" height="0" class="tetris"></rect></g><g class="device wire d" style="transform: matrix(1, 0, 0, 1, 250, 50); transform-origin: 300px 100px;"><rect x="50" y="50" width="0" height="0" class="tetris"></rect></g><g class="device wire d" style="transform: matrix(1, 0, 0, 1, 400, 300); transform-origin: 450px 350px;"><rect x="50" y="50" width="0" height="0" class="tetris"></rect></g><g class="device wire d" style="transform: matrix(1, 0, 0, 1, 450, 200); transform-origin: 500px 250px;"><rect x="50" y="50" width="0" height="0" class="tetris"></rect></g><g class="device wire d" style="transform: matrix(1, 0, 0, 1, 250, 350); transform-origin: 300px 400px;"><rect x="50" y="50" width="0" height="0" class="tetris"></rect></g><g class="device wire d" style="transform: matrix(1, 0, 0, 1, 300, 200); transform-origin: 350px 250px;"><rect x="50" y="50" width="0" height="0" class="tetris"></rect></g><g class="device wire d" style="transform: matrix(1, 0, 0, 1, 150, 200); transform-origin: 200px 250px;"><rect x="50" y="50" width="0" height="0" class="tetris"></rect></g><g class="device wire d" style="transform: matrix(1, 0, 0, 1, 600, 300); transform-origin: 650px 350px;"><rect x="50" y="50" width="0" height="0" class="tetris"></rect></g><g class="device wire d" style="transform: matrix(1, 0, 0, 1, 0, 250); transform-origin: 50px 300px;"><rect x="50" y="50" width="0" height="0" class="tetris"></rect></g><g class="device straight photonic" style="transform: matrix(1, 0, 0, 1, 300, 250); transform-origin: 375px 325px;"><rect x="50" y="50" width="50" height="50" class="tetris"></rect></g><g class="device isource source" style="transform: matrix(1, 0, 0, 1, 200, 50); transform-origin: 275px 125px;"><rect x="50" y="50" width="50" height="50" class="tetris"></rect></g><g class="device port ground" style="transform: matrix(0, -1, 1, 0, 350, -200); transform-origin: 250px 400px;"><rect x="50" y="50" width="0" height="0" class="tetris"></rect></g><g class="device ckt" style="transform: matrix(1, 0, 0, 1, 150, 150); transform-origin: 250px 250px;"><rect x="50" y="50" width="100" height="50" class="tetris"></rect></g><g class="device mmi-1x2 photonic" style="transform: matrix(1, 0, 0, 1, 0, 150); transform-origin: 125px 275px;"><rect x="50" y="50" width="50" height="150" class="tetris"></rect></g><g class="device port ground" style="transform: matrix(0, 1, -1, 0, -50, 200); transform-origin: 250px 100px;"><rect x="50" y="50" width="0" height="0" class="tetris"></rect></g><g class="device OpticalDetector photonic-active" style="transform: matrix(1, 0, 0, 1, 600, 150); transform-origin: 675px 225px;"><rect x="50" y="50" width="50" height="50" class="tetris"></rect></g><g class="device OpticalSource source" style="transform: matrix(1, 0, 0, 1, -150, 200); transform-origin: -75px 275px;"><rect x="50" y="50" width="50" height="50" class="tetris"></rect></g><g class="device OpticalDetector photonic-active" style="transform: matrix(1, 0, 0, 1, 600, 250); transform-origin: 675px 325px;"><rect x="50" y="50" width="50" height="50" class="tetris"></rect></g><g class="device mmi-2x2 photonic" style="transform: matrix(1, 0, 0, 1, 450, 150); transform-origin: 575px 275px;"><rect x="50" y="50" width="50" height="150" class="tetris"></rect></g><g class="device ckt" style="transform: matrix(1, 0, 0, -1, 150, -200); transform-origin: 250px 300px;"><rect x="50" y="50" width="100" height="50" class="tetris"></rect></g><g class="wire photonic"><polyline points="625,225 575,225" class="wirebb"></polyline><polyline points="625,225 575,225" class="wire photonic"></polyline></g><g class="device straight photonic" style="transform: matrix(1, 0, 0, 1, 300, 250); transform-origin: 375px 325px;"><text transform="matrix(1, 0, 0, 1, 105, 62.5)" class="identifier"><tspan x="0" dy="0">X5</tspan></text><polyline points="25,75,125,75"></polyline></g><g class="wire electric"><polyline points="225,75 225,175" class="wirebb"></polyline><polyline points="225,75 225,175" class="wire electric"></polyline></g><g class="device isource source" style="transform: matrix(1, 0, 0, 1, 200, 50); transform-origin: 275px 125px;"><text transform="matrix(1, 0, 0, 1, 105, 62.5)" class="identifier"><tspan x="0" dy="0">I1: 0;0.05;100</tspan></text><polyline points="75,25,75,55.00000000000001"></polyline><polyline points="75,62.5,75,82.5"></polyline><polyline points="75,95,75,125"></polyline><circle cx="75" cy="75" r="20" class="outline"></circle><polygon transform="rotate(-90 75 90)" points="75,90,82.5,97.5,82.5,82.5" class="arrow"></polygon></g><g class="wire photonic"><polyline points="125,325 175,325" class="wirebb"></polyline><polyline points="125,325 175,325" class="wire photonic"></polyline></g><g class="wire electric"><polyline points="275,75 225,75" class="wirebb"></polyline><polyline points="275,75 225,75" class="wire electric"></polyline></g><g class="wire photonic"><polyline points="425,325 475,325" class="wirebb"></polyline><polyline points="425,325 475,325" class="wire photonic"></polyline></g><g class="wire photonic"><polyline points="475,225 425,225" class="wirebb"></polyline><polyline points="475,225 425,225" class="wire photonic"></polyline></g><g class="device port ground" style="transform: matrix(0, -1, 1, 0, 350, -200); transform-origin: 225px 375px;"><polyline points="25,25,15,25"></polyline><polyline points="0,25,15,10,15,40,0,25"></polyline><text text-anchor="middle" dominant-baseline="middle" transform="matrix(0, 1, -1, 0, -12.5, 25)">GND</text></g><g class="device ckt" style="transform: matrix(1, 0, 0, 1, 150, 150); transform-origin: 250px 250px;"><text transform="matrix(1, 0, 0, 1, 155, 62.5)" class="identifier"><tspan x="0" dy="0">X1</tspan></text><polyline points="75,25,75,50"></polyline><polyline points="125,25,125,50"></polyline><polyline points="150,75,175,75"></polyline><polyline points="50,75,25,75"></polyline><text x="57.49999999999999" y="75" text-anchor="start" dominant-baseline="middle" transform="matrix(1, 0, 0, 1, 0, 0)" class="port-label">o1</text><text x="142.5" y="75" text-anchor="end" dominant-baseline="middle" transform="matrix(1, 0, 0, 1, 0, 0)" class="port-label">o2</text><text x="75" y="65" text-anchor="middle" dominant-baseline="hanging" transform="matrix(1, 0, 0, 1, 0, 0)" class="port-label">l_e2</text><text x="125" y="65" text-anchor="middle" dominant-baseline="hanging" transform="matrix(1, 0, 0, 1, 0, 0)" class="port-label">r_e2</text><rect class="outline" x="50" y="50" width="100" height="50"></rect><text x="100" y="75" text-anchor="middle" dominant-baseline="middle" transform="matrix(1, 0, 0, 1, 0, 0)" class="model-name">straight_heater_meander</text></g><g class="wire electric"><polyline points="275,375 225,375" class="wirebb"></polyline><polyline points="275,375 225,375" class="wire electric"></polyline></g><g class="device mmi-1x2 photonic" style="transform: matrix(1, 0, 0, 1, 0, 150); transform-origin: 125px 275px;"><text transform="matrix(1, 0, 0, 1, 105, 62.5)" class="identifier"><tspan x="0" dy="0">X2</tspan></text><polyline points="25,125,50,125"></polyline><polyline points="100,75,125,75"></polyline><polyline points="100,175,125,175"></polyline><rect x="50" y="50" width="50" height="150" class="outline"></rect></g><g class="device port ground" style="transform: matrix(0, 1, -1, 0, -50, 200); transform-origin: 225px 75px;"><polyline points="25,25,15,25"></polyline><polyline points="0,25,15,10,15,40,0,25"></polyline><text text-anchor="middle" dominant-baseline="middle" transform="matrix(0, -1, 1, 0, -12.5, 25)">GND</text></g><g class="wire photonic"><polyline points="325,225 425,225" class="wirebb"></polyline><polyline points="325,225 425,225" class="wire photonic"></polyline></g><g class="device OpticalDetector photonic-active" style="transform: matrix(1, 0, 0, 1, 600, 150); transform-origin: 675px 225px;"><text transform="matrix(1, 0, 0, 1, 105, 62.5)" class="identifier"><tspan x="0" dy="0">PD1</tspan></text><polyline points="25,75,53,75"></polyline><circle cx="75" cy="75" r="22" class="outline"></circle><circle cx="75" cy="75" r="14.000000000000002" class="outline"></circle><path d="M73,67 L83,77 M80,77 L83,77 L83,73"></path><path d="M67,73 L77,83 M73,83 L77,83 L77,80"></path></g><g class="device OpticalSource source" style="transform: matrix(1, 0, 0, 1, -150, 200); transform-origin: -75px 275px;"><text transform="matrix(1, 0, 0, 1, 105, 62.5)" class="identifier"><tspan x="0" dy="0">LS1</tspan></text><polyline points="75,75,96,75"></polyline><polyline points="75,75,88.5,78.60000000000001"></polyline><polyline points="75,75,93.2,85.5"></polyline><polyline points="75,75,84.89999999999999,84.89999999999999"></polyline><polyline points="75,75,85.5,93.2"></polyline><polyline points="75,75,78.60000000000001,88.5"></polyline><polyline points="75,75,75,96"></polyline><polyline points="75,75,71.39999999999999,88.5"></polyline><polyline points="75,75,64.5,93.2"></polyline><polyline points="75,75,65.10000000000001,84.89999999999999"></polyline><polyline points="75,75,56.8,85.5"></polyline><polyline points="75,75,61.5,78.60000000000001"></polyline><polyline points="75,75,54,75"></polyline><polyline points="75,75,61.5,71.39999999999999"></polyline><polyline points="75,75,56.8,64.5"></polyline><polyline points="75,75,65.10000000000001,65.10000000000001"></polyline><polyline points="75,75,64.5,56.8"></polyline><polyline points="75,75,71.39999999999999,61.5"></polyline><polyline points="75,75,75,54"></polyline><polyline points="75,75,78.60000000000001,61.5"></polyline><polyline points="75,75,85.5,56.8"></polyline><polyline points="75,75,84.89999999999999,65.10000000000001"></polyline><polyline points="75,75,93.2,64.5"></polyline><polyline points="75,75,88.5,71.39999999999999"></polyline><polyline points="96,75,125,75"></polyline></g><g class="device OpticalDetector photonic-active" style="transform: matrix(1, 0, 0, 1, 600, 250); transform-origin: 675px 325px;"><text transform="matrix(1, 0, 0, 1, 105, 62.5)" class="identifier"><tspan x="0" dy="0">PD2</tspan></text><polyline points="25,75,53,75"></polyline><circle cx="75" cy="75" r="22" class="outline"></circle><circle cx="75" cy="75" r="14.000000000000002" class="outline"></circle><path d="M73,67 L83,77 M80,77 L83,77 L83,73"></path><path d="M67,73 L77,83 M73,83 L77,83 L77,80"></path></g><g class="wire photonic"><polyline points="175,225 125,225" class="wirebb"></polyline><polyline points="175,225 125,225" class="wire photonic"></polyline></g><g class="wire photonic"><polyline points="625,325 575,325" class="wirebb"></polyline><polyline points="625,325 575,325" class="wire photonic"></polyline></g><g class="wire photonic"><polyline points="25,275 -25,275" class="wirebb"></polyline><polyline points="25,275 -25,275" class="wire photonic"></polyline></g><g class="device mmi-2x2 photonic" style="transform: matrix(1, 0, 0, 1, 450, 150); transform-origin: 575px 275px;"><text transform="matrix(1, 0, 0, 1, 105, 62.5)" class="identifier"><tspan x="0" dy="0">X4</tspan></text><polyline points="25,75,50,75"></polyline><polyline points="25,175,50,175"></polyline><polyline points="100,75,125,75"></polyline><polyline points="100,175,125,175"></polyline><rect x="50" y="50" width="50" height="150" class="outline"></rect></g><g class="device ckt" style="transform: matrix(1, 0, 0, -1, 150, -200); transform-origin: 250px 300px;"><text transform="matrix(1, 0, 0, -1, 155, 87.5)" class="identifier"><tspan x="0" dy="0">X3</tspan></text><polyline points="75,25,75,50"></polyline><polyline points="125,25,125,50"></polyline><polyline points="150,75,175,75"></polyline><polyline points="50,75,25,75"></polyline><text x="57.49999999999999" y="75" text-anchor="start" dominant-baseline="middle" transform="matrix(1, 0, 0, -1, 0, 150)" class="port-label">o1</text><text x="142.5" y="75" text-anchor="end" dominant-baseline="middle" transform="matrix(1, 0, 0, -1, 0, 150)" class="port-label">o2</text><text x="75" y="65" text-anchor="middle" dominant-baseline="hanging" transform="matrix(1, 0, 0, -1, 0, 130)" class="port-label">l_e2</text><text x="125" y="65" text-anchor="middle" dominant-baseline="hanging" transform="matrix(1, 0, 0, -1, 0, 130)" class="port-label">r_e2</text><rect class="outline" x="50" y="50" width="100" height="50"></rect><text x="100" y="75" text-anchor="middle" dominant-baseline="middle" transform="matrix(1, 0, 0, -1, 0, 150)" class="model-name">straight_heater_meander</text></g><g class="device wire d" style="transform: matrix(1, 0, 0, 1, 600, 200); transform-origin: 625px 225px;"></g><g class="device straight photonic" style="transform: matrix(1, 0, 0, 1, 300, 250); transform-origin: 375px 325px;"><circle cx="25" cy="75" r="5" class="port photonic"></circle><circle cx="125" cy="75" r="5" class="port photonic"></circle></g><g class="device wire d" style="transform: matrix(1, 0, 0, 1, 200, 50); transform-origin: 225px 75px;"></g><g class="device isource source" style="transform: matrix(1, 0, 0, 1, 200, 50); transform-origin: 275px 125px;"><circle cx="75" cy="25" r="5" class="port electric"></circle><circle cx="75" cy="125" r="5" class="port electric"></circle></g><g class="device wire d" style="transform: matrix(1, 0, 0, 1, 100, 300); transform-origin: 125px 325px;"></g><g class="device wire d" style="transform: matrix(1, 0, 0, 1, 250, 50); transform-origin: 275px 75px;"></g><g class="device wire d" style="transform: matrix(1, 0, 0, 1, 400, 300); transform-origin: 425px 325px;"></g><g class="device wire d" style="transform: matrix(1, 0, 0, 1, 450, 200); transform-origin: 475px 225px;"></g><g class="device port ground" style="transform: matrix(0, -1, 1, 0, 350, -200); transform-origin: 225px 375px;"><circle cx="25" cy="25" r="5" class="port"></circle></g><g class="device ckt" style="transform: matrix(1, 0, 0, 1, 150, 150); transform-origin: 250px 250px;"><circle cx="75" cy="25" r="5" class="port electric"></circle><circle cx="125" cy="25" r="5" class="port electric"></circle><circle cx="25" cy="75" r="5" class="port photonic"></circle><circle cx="175" cy="75" r="5" class="port photonic"></circle></g><g class="device wire d" style="transform: matrix(1, 0, 0, 1, 250, 350); transform-origin: 275px 375px;"></g><g class="device mmi-1x2 photonic" style="transform: matrix(1, 0, 0, 1, 0, 150); transform-origin: 125px 275px;"><circle cx="25" cy="125" r="5" class="port photonic"></circle><circle cx="125" cy="75" r="5" class="port photonic"></circle><circle cx="125" cy="175" r="5" class="port photonic"></circle></g><g class="device port ground" style="transform: matrix(0, 1, -1, 0, -50, 200); transform-origin: 225px 75px;"><circle cx="25" cy="25" r="5" class="port"></circle></g><g class="device wire d" style="transform: matrix(1, 0, 0, 1, 300, 200); transform-origin: 325px 225px;"></g><g class="device OpticalDetector photonic-active" style="transform: matrix(1, 0, 0, 1, 600, 150); transform-origin: 675px 225px;"><circle cx="25" cy="75" r="5" class="port photonic"></circle></g><g class="device OpticalSource source" style="transform: matrix(1, 0, 0, 1, -150, 200); transform-origin: -75px 275px;"><circle cx="125" cy="75" r="5" class="port photonic"></circle></g><g class="device OpticalDetector photonic-active" style="transform: matrix(1, 0, 0, 1, 600, 250); transform-origin: 675px 325px;"><circle cx="25" cy="75" r="5" class="port photonic"></circle></g><g class="device wire d" style="transform: matrix(1, 0, 0, 1, 150, 200); transform-origin: 175px 225px;"></g><g class="device wire d" style="transform: matrix(1, 0, 0, 1, 600, 300); transform-origin: 625px 325px;"></g><g class="device wire d" style="transform: matrix(1, 0, 0, 1, 0, 250); transform-origin: 25px 275px;"></g><g class="device mmi-2x2 photonic" style="transform: matrix(1, 0, 0, 1, 450, 150); transform-origin: 575px 275px;"><circle cx="25" cy="75" r="5" class="port photonic"></circle><circle cx="25" cy="175" r="5" class="port photonic"></circle><circle cx="125" cy="75" r="5" class="port photonic"></circle><circle cx="125" cy="175" r="5" class="port photonic"></circle></g><g class="device ckt" style="transform: matrix(1, 0, 0, -1, 150, -200); transform-origin: 250px 300px;"><circle cx="75" cy="25" r="5" class="port electric"></circle><circle cx="125" cy="25" r="5" class="port electric"></circle><circle cx="25" cy="75" r="5" class="port photonic"></circle><circle cx="175" cy="75" r="5" class="port photonic"></circle></g><circle class="wire" cx="225" cy="375" r="5"></circle><circle class="wire" cx="225" cy="75" r="5"></circle></g></svg>
